<svg width="54" height="60" viewBox="0 0 54 60" fill="none" xmlns="http://www.w3.org/2000/svg">
<g clip-path="url(#clip0)">
<path fill-rule="evenodd" clip-rule="evenodd" d="M31.7138 6.86729L44.008 13.9819C44.363 13.6055 44.7703 13.2824 45.2174 13.0227C47.767 11.5535 51.0192 12.4258 52.5002 14.9815C53.9661 17.5371 53.0958 20.7965 50.5459 22.2808C50.1022 22.537 49.624 22.7278 49.126 22.8475V37.0819C49.6185 37.2018 50.0915 37.3913 50.5307 37.6448C53.0958 39.1292 53.9661 42.3887 52.4851 44.9444C51.0192 47.4998 47.7518 48.3721 45.202 46.9031C44.708 46.6191 44.263 46.257 43.8841 45.8308L31.6648 52.9017C31.8437 53.4447 31.9346 54.0131 31.934 54.585C31.934 57.5231 29.5523 59.9258 26.6054 59.9258C23.6586 59.9258 21.2769 57.5383 21.2769 54.585C21.2769 54.06 21.3521 53.5529 21.4924 53.074L9.20154 45.9615C8.8505 46.3304 8.44891 46.6475 8.00883 46.9031C5.44381 48.3721 2.19161 47.4998 0.725763 44.9444C-0.739872 42.3887 0.130446 39.1292 2.68008 37.6448C3.11931 37.3913 3.59229 37.2017 4.08481 37.0817V22.8475C3.58686 22.7278 3.10866 22.537 2.66491 22.2808C0.115064 20.8119 -0.755254 17.5371 0.710589 14.9815C2.17643 12.4258 5.44361 11.5535 7.99345 13.0227C8.43809 13.281 8.8434 13.602 9.19697 13.9758L21.4947 6.85937C21.3497 6.36623 21.2764 5.85473 21.2769 5.34062C21.2769 2.3875 23.6586 0 26.6054 0C29.5523 0 31.934 2.38729 31.934 5.34062C31.934 5.87146 31.857 6.38375 31.7138 6.86729ZM30.433 9.05937L42.7565 16.1906C42.5603 16.8781 42.504 17.5982 42.591 18.3079C42.678 19.0177 42.9066 19.7026 43.2631 20.3221C44.0132 21.63 45.2353 22.4971 46.5915 22.835V37.0871C46.5223 37.104 46.4535 37.1225 46.3851 37.1421L30.2898 9.20208C30.3384 9.15542 30.3862 9.10792 30.433 9.05958V9.05937ZM22.9244 9.20521L6.82921 37.1448C6.75962 37.1246 6.68963 37.1059 6.61927 37.0885V22.835C7.97557 22.4971 9.19759 21.63 9.94777 20.3221C10.305 19.7015 10.5337 19.0151 10.6204 18.3039C10.7071 17.5927 10.6499 16.8713 10.4522 16.1827L22.7722 9.05354C22.8219 9.105 22.8726 9.15562 22.9244 9.205V9.20521ZM28.0943 10.4708L44.1858 38.4042C43.8172 38.7567 43.5012 39.1606 43.2477 39.6035C42.9948 40.0438 42.8057 40.5178 42.686 41.0115H10.5252C10.4054 40.5178 10.2162 40.0438 9.96315 39.6035C9.70873 39.1637 9.39338 38.7622 9.02652 38.411L25.1211 10.4721C25.6036 10.6113 26.1033 10.6818 26.6054 10.6812C27.1224 10.6812 27.6219 10.6079 28.0943 10.4708ZM30.5461 50.9871L42.7895 43.9021C42.7528 43.7864 42.7201 43.6695 42.6912 43.5517H10.5183C10.5013 43.621 10.4828 43.6898 10.4631 43.7583L22.7664 50.8781C23.2633 50.3603 23.8595 49.9486 24.5193 49.6679C25.179 49.3871 25.8886 49.243 26.6054 49.2444C27.3472 49.2431 28.0811 49.3975 28.7598 49.6976C29.4385 49.9978 30.047 50.437 30.5461 50.9871Z" fill="#E535AB"/>
</g>
<defs>
<clipPath id="clip0">
<rect width="53.2127" height="60" fill="white"/>
</clipPath>
</defs>
</svg>
