<svg width="59" height="60" viewBox="0 0 59 60" fill="none" xmlns="http://www.w3.org/2000/svg">
<g clip-path="url(#clip0)">
<path d="M57.9564 35.9288C57.6076 34.8722 56.6937 34.1363 55.5119 33.9597C54.9546 33.8765 54.3164 33.912 53.5612 34.0677C52.2448 34.3393 51.2683 34.4427 50.5555 34.4627C53.2458 29.9206 55.4333 24.7411 56.6926 19.8654C58.7289 11.9815 57.6408 8.38995 56.3692 6.7654C53.0039 2.4654 48.0942 0.155401 42.171 0.0847191C39.0112 0.0460827 36.2373 0.669946 34.7903 1.11858C33.443 0.880855 31.9944 0.748128 30.4744 0.723583C27.6251 0.678128 25.1076 1.29926 22.9564 2.57586C21.7655 2.17313 19.8542 1.6054 17.6469 1.24313C12.4555 0.390855 8.27143 1.05495 5.21098 3.21699C1.50507 5.83472 -0.212885 10.3829 0.104843 16.7352C0.205752 18.752 1.33393 24.8884 3.1103 30.7079C4.13121 34.0529 5.21984 36.8306 6.34598 38.9647C7.94303 41.9909 9.65189 43.7729 11.5703 44.4129C12.6455 44.7711 14.5992 45.022 16.6539 43.3106C16.9144 43.6261 17.2619 43.9395 17.723 44.2306C18.3087 44.5999 19.0248 44.9018 19.7401 45.0806C22.3176 45.7249 24.7319 45.5638 26.7917 44.6606C26.8044 45.027 26.8142 45.377 26.8223 45.6793C26.836 46.1695 26.8496 46.6502 26.8676 47.0997C26.9896 50.1393 27.1964 52.5027 27.8092 54.1563C27.8428 54.2472 27.888 54.3859 27.9358 54.5329C28.2414 55.4688 28.7526 57.0356 30.053 58.2627C31.3996 59.5338 33.0285 59.9236 34.5203 59.9236C35.2685 59.9236 35.9823 59.8254 36.6085 59.6913C38.8403 59.2129 41.3751 58.4843 43.2087 55.8734C44.9423 53.4052 45.7851 49.6877 45.9376 43.8302C45.9573 43.6645 45.9755 43.5063 45.993 43.3556L46.0294 43.0461L46.4378 43.082L46.543 43.089C48.8162 43.1927 51.5958 42.7106 53.3028 41.9177C54.6517 41.2918 58.9742 39.0097 57.9564 35.9288Z" fill="#202833"/>
<path d="M54.0696 36.5278C47.3105 37.9221 46.8458 35.6337 46.8458 35.6337C53.9821 25.0444 56.9655 11.6028 54.3912 8.31303C47.3676 -0.660837 35.2096 3.58325 35.0067 3.69325L34.9414 3.70507C33.606 3.4278 32.1117 3.2628 30.4319 3.2353C27.3737 3.1853 25.0537 4.03712 23.2933 5.37212C23.2933 5.37212 1.60462 -3.56288 2.61348 16.6094C2.82803 20.9008 8.76439 49.0805 15.8448 40.5689C18.4328 37.4564 20.9335 34.8248 20.9335 34.8248C22.1753 35.6498 23.6621 36.0708 25.2208 35.9196L25.3419 35.8169C25.3042 36.2033 25.3214 36.5812 25.3903 37.0287C23.5662 39.0667 24.1023 39.4244 20.456 40.1751C16.7662 40.9355 18.9337 42.2892 20.3489 42.6433C22.0646 43.0721 26.0337 43.6798 28.7155 39.9255L28.6087 40.3539C29.3233 40.9264 29.8251 44.0773 29.741 46.9339C29.6569 49.7903 29.6008 51.7514 30.1637 53.2833C30.7271 54.8151 31.2883 58.2617 36.0819 57.2346C40.0871 56.3762 42.1628 54.1519 42.4517 50.4414C42.6564 47.8037 43.1203 48.1937 43.1494 45.8353L43.5214 44.7189C43.9503 41.1433 43.5896 39.9896 46.0571 40.5262L46.6571 40.5789C48.473 40.6614 50.8503 40.2867 52.2455 39.6383C55.2496 38.2442 57.0314 35.9162 54.0692 36.5278H54.0696Z" fill="#336791"/>
<path d="M24.5628 18.5282C23.9538 18.4434 23.4022 18.5218 23.1231 18.7332C22.9663 18.8521 22.9176 18.9898 22.9044 19.0846C22.8694 19.3357 23.0453 19.6134 23.1535 19.7566C23.4594 20.1621 23.9063 20.4407 24.3485 20.5021C24.4126 20.5112 24.4765 20.5153 24.5399 20.5153C25.2774 20.5153 25.9481 19.9409 26.0072 19.5171C26.081 18.9862 25.3103 18.6323 24.5628 18.5284" fill="white"/>
<path d="M44.741 18.5452C44.6829 18.1291 43.9424 18.0104 43.2397 18.1082C42.5379 18.2059 41.8574 18.5227 41.9142 18.9397C41.9597 19.2641 42.5454 19.8177 43.2385 19.8177C43.2972 19.8177 43.3563 19.8138 43.4158 19.8054C43.8785 19.7413 44.2181 19.4475 44.3794 19.2781C44.6249 19.02 44.7672 18.7322 44.741 18.5452Z" fill="white"/>
<path d="M56.3186 36.3693C56.0608 35.59 55.2313 35.3393 53.8531 35.6238C49.7611 36.4684 48.2956 35.8834 47.8145 35.5291C50.9952 30.6836 53.6118 24.8263 55.0233 19.3616C55.692 16.7729 56.0613 14.3688 56.0915 12.4093C56.1249 10.2586 55.7586 8.67815 55.0031 7.7127C51.9572 3.82065 47.4868 1.73292 42.0754 1.67565C38.3552 1.63383 35.212 2.58588 34.6027 2.85361C33.3195 2.53452 31.9206 2.33861 30.3977 2.31361C27.6049 2.26838 25.1908 2.93702 23.1922 4.29997C22.324 3.97679 20.0804 3.20656 17.3365 2.76452C12.5929 2.00088 8.82335 2.57952 6.13335 4.4852C2.92358 6.75929 1.44176 10.8243 1.72881 16.567C1.8254 18.4991 2.92631 24.4427 4.66358 30.1347C6.9504 37.6266 9.43631 41.8677 12.0518 42.7402C12.3579 42.8422 12.7108 42.9136 13.1002 42.9136C14.0543 42.9136 15.224 42.4836 16.4411 41.0204C17.9255 39.2396 19.4611 37.5021 21.0458 35.81C22.074 36.3618 23.2036 36.67 24.3588 36.7009C24.3611 36.7311 24.364 36.7613 24.3668 36.7913C24.1679 37.0285 23.9732 37.269 23.7827 37.5129C22.9822 38.5291 22.8156 38.7407 20.239 39.2711C19.5061 39.4225 17.5595 39.8236 17.5309 41.1881C17.4999 42.6791 19.832 43.3052 20.0977 43.3716C21.0236 43.6034 21.9156 43.7177 22.7663 43.7177C24.8352 43.7177 26.6559 43.0377 28.1109 41.722C28.0661 47.037 28.2877 52.2743 28.9258 53.87C29.4486 55.1763 30.7254 58.3688 34.7586 58.3686C35.3504 58.3686 36.0018 58.2997 36.7183 58.1461C40.9277 57.2438 42.7556 55.3834 43.4627 51.2818C43.8411 49.0897 44.4904 43.8554 44.7958 41.0477C45.4404 41.2488 46.2702 41.3409 47.1672 41.3406C49.0381 41.3406 51.197 40.9431 52.5508 40.3147C54.0718 39.6084 56.8163 37.8752 56.3186 36.3693ZM46.2945 17.3966C46.2806 18.2254 46.1665 18.9779 46.0456 19.7634C45.9154 20.6082 45.7808 21.4816 45.747 22.5418C45.7136 23.5736 45.8424 24.6463 45.967 25.6838C46.2188 27.7793 46.4772 29.9366 45.477 32.0652C45.3108 31.7708 45.1628 31.4665 45.0338 31.1541C44.9095 30.8527 44.6395 30.3686 44.2656 29.6986C42.8113 27.0904 39.4056 20.9827 41.149 18.4904C41.6684 17.7486 42.9863 16.9859 46.2945 17.3966ZM42.2845 3.35406C47.1331 3.46111 50.9686 5.27497 53.684 8.74497C55.7668 11.4066 53.4734 23.5172 46.834 33.9652C46.7673 33.8803 46.7001 33.7957 46.6327 33.7113L46.5486 33.6063C48.2643 30.7729 47.9288 27.9695 47.6302 25.4841C47.5074 24.4641 47.3915 23.5007 47.4211 22.5956C47.4515 21.6366 47.5783 20.8138 47.7011 20.0184C47.8518 19.0382 48.0052 18.0238 47.9629 16.8282C47.9945 16.7027 48.0072 16.5545 47.9906 16.3786C47.8827 15.232 46.5736 11.8004 43.9054 8.69452C42.4459 6.99565 40.3174 5.09452 37.4113 3.81224C38.6613 3.55315 40.3706 3.31156 42.2845 3.35406ZM15.1531 39.9495C13.8122 41.5618 12.8863 41.2527 12.5818 41.1513C10.5977 40.4895 8.2954 36.2959 6.26562 29.6459C4.50926 23.8918 3.4829 18.1057 3.40153 16.4832C3.14517 11.3518 4.38903 7.77565 7.09881 5.85383C11.5088 2.72656 18.7593 4.59838 21.6727 5.5477C21.6308 5.58906 21.5872 5.6277 21.5459 5.66974C16.7649 10.4979 16.8784 18.747 16.8902 19.2513C16.8897 19.4459 16.9061 19.7213 16.9284 20.1002C17.0106 21.4877 17.1638 24.07 16.7547 26.9943C16.3747 29.7118 17.2124 32.3716 19.0527 34.2918C19.2415 34.4885 19.44 34.6757 19.6474 34.8527C18.8284 35.73 17.0481 37.67 15.1531 39.9495ZM20.262 33.1329C18.7788 31.5852 18.1052 29.4325 18.4136 27.2261C18.8454 24.137 18.6861 21.4466 18.6004 20.0011C18.5884 19.7988 18.5777 19.6216 18.5715 19.4818C19.2699 18.8625 22.5065 17.1284 24.8147 17.6572C25.8679 17.8984 26.5097 18.6157 26.7765 19.8493C28.1574 26.2363 26.9593 28.8984 25.9965 31.0377C25.7981 31.4784 25.6106 31.895 25.4506 32.3259L25.3265 32.6591C25.0124 33.5013 24.7202 34.2845 24.539 35.0281C22.9622 35.0236 21.4284 34.35 20.262 33.1327V33.1329ZM20.504 41.7466C20.0436 41.6316 19.6295 41.4318 19.3865 41.2661C19.5895 41.1707 19.9506 41.0406 20.577 40.9116C23.6081 40.2877 24.0763 39.8472 25.0986 38.5493C25.3329 38.2516 25.5986 37.9143 25.9665 37.5034L25.967 37.5029C26.5149 36.8893 26.7656 36.9934 27.2202 37.182C27.5886 37.3343 27.9474 37.7961 28.0929 38.3043C28.1618 38.5443 28.239 38.9997 27.9861 39.3543C25.8506 42.3443 22.7388 42.3059 20.504 41.7466ZM36.3674 56.5084C32.6593 57.3029 31.3463 55.4109 30.4811 53.2479C29.9227 51.8516 29.6481 45.5547 29.8429 38.6009C29.8454 38.5084 29.8322 38.4191 29.8068 38.335C29.784 38.1689 29.7494 38.0047 29.7031 37.8436C29.4136 36.8318 28.7079 35.9854 27.8613 35.6345C27.5249 35.4952 26.9077 35.2395 26.1658 35.4293C26.324 34.7775 26.5984 34.0413 26.8959 33.2443L27.0206 32.9091C27.1611 32.5311 27.3374 32.1395 27.5238 31.725C28.5313 29.4868 29.9111 26.4211 28.4136 19.4954C27.8527 16.9013 25.9795 15.6345 23.1399 15.9288C21.4377 16.105 19.8802 16.7918 19.1033 17.1856C18.9363 17.2702 18.7836 17.352 18.6409 17.4316C18.8577 14.8179 19.6768 9.93338 22.7409 6.84292C24.6702 4.89747 27.2395 3.93656 30.3699 3.98838C36.5381 4.08929 40.4936 7.25474 42.7258 9.8927C44.6495 12.1657 45.6911 14.4554 46.1068 15.6904C42.9806 15.3725 40.8545 15.9895 39.7768 17.5304C37.432 20.8822 41.0595 27.3877 42.8029 30.5143C43.1227 31.0872 43.3986 31.5825 43.4854 31.7929C44.0531 33.1688 44.7881 34.0875 45.3247 34.7579C45.4893 34.9634 45.6488 35.1627 45.7702 35.3368C44.8234 35.6097 43.1227 36.2404 43.2777 39.3929C43.1527 40.9747 42.2638 48.3806 41.8122 50.9972C41.2161 54.4541 39.944 55.7416 36.3674 56.5086V56.5084ZM51.8456 38.7957C50.8774 39.245 49.2572 39.582 47.7181 39.6545C46.0181 39.7341 45.1527 39.4641 44.949 39.2979C44.8536 37.3334 45.5847 37.1282 46.3586 36.9109C46.4802 36.8768 46.5988 36.8434 46.7133 36.8034C46.7845 36.8613 46.8624 36.9188 46.9479 36.9752C48.3143 37.877 50.7513 37.9743 54.192 37.2641L54.2297 37.2566C53.7656 37.6904 52.9715 38.2727 51.8456 38.7957Z" fill="white"/>
</g>
<defs>
<clipPath id="clip0">
<rect width="58.1818" height="60" fill="white"/>
</clipPath>
</defs>
</svg>
